<mxfile host="Electron" agent="Mozilla/5.0 (Windows NT 10.0; Win64; x64) AppleWebKit/537.36 (KHTML, like Gecko) draw.io/28.1.2 Chrome/138.0.7204.243 Electron/37.4.0 Safari/537.36" version="28.1.2">
  <diagram name="Page-1" id="DTE_5zPNwRGtIzDRRzem">
    <mxGraphModel dx="872" dy="529" grid="0" gridSize="10" guides="1" tooltips="1" connect="1" arrows="1" fold="1" page="1" pageScale="1" pageWidth="850" pageHeight="1100" math="0" shadow="1">
      <root>
        <mxCell id="0" />
        <mxCell id="1" parent="0" />
        <mxCell id="A0-HN7C7BS5goOcvQzFF-11" style="edgeStyle=orthogonalEdgeStyle;rounded=0;orthogonalLoop=1;jettySize=auto;html=1;labelBackgroundColor=none;strokeColor=#0B4D6A;fontColor=default;sketch=1;curveFitting=1;jiggle=2;" edge="1" parent="1">
          <mxGeometry relative="1" as="geometry">
            <mxPoint x="743" y="200" as="targetPoint" />
            <mxPoint x="400" y="141" as="sourcePoint" />
          </mxGeometry>
        </mxCell>
        <mxCell id="A0-HN7C7BS5goOcvQzFF-17" style="edgeStyle=orthogonalEdgeStyle;rounded=0;orthogonalLoop=1;jettySize=auto;html=1;exitX=0.5;exitY=1;exitDx=0;exitDy=0;labelBackgroundColor=none;strokeColor=#0B4D6A;fontColor=default;sketch=1;curveFitting=1;jiggle=2;" edge="1" parent="1">
          <mxGeometry relative="1" as="geometry">
            <mxPoint x="392.5" y="270" as="targetPoint" />
            <mxPoint x="392.5" y="90" as="sourcePoint" />
            <Array as="points">
              <mxPoint x="387.5" y="257" />
            </Array>
          </mxGeometry>
        </mxCell>
        <mxCell id="A0-HN7C7BS5goOcvQzFF-1" value="Hospital Records" style="rounded=0;whiteSpace=wrap;html=1;fontStyle=1;fontFamily=Verdana;labelBackgroundColor=none;fillColor=#09555B;strokeColor=#BAC8D3;fontColor=#EEEEEE;sketch=1;curveFitting=1;jiggle=2;" vertex="1" parent="1">
          <mxGeometry x="295" y="10" width="190" height="80" as="geometry" />
        </mxCell>
        <mxCell id="A0-HN7C7BS5goOcvQzFF-18" value="Patient Management" style="rounded=0;whiteSpace=wrap;html=1;labelBackgroundColor=none;fillColor=#09555B;strokeColor=#BAC8D3;fontColor=#EEEEEE;sketch=1;curveFitting=1;jiggle=2;" vertex="1" parent="1">
          <mxGeometry x="660" y="200" width="180" height="60" as="geometry" />
        </mxCell>
        <mxCell id="A0-HN7C7BS5goOcvQzFF-32" style="edgeStyle=elbowEdgeStyle;rounded=0;orthogonalLoop=1;jettySize=auto;html=1;exitX=0.5;exitY=1;exitDx=0;exitDy=0;labelBackgroundColor=none;strokeColor=#0B4D6A;fontColor=default;sketch=1;curveFitting=1;jiggle=2;" edge="1" parent="1" source="A0-HN7C7BS5goOcvQzFF-20" target="A0-HN7C7BS5goOcvQzFF-26">
          <mxGeometry relative="1" as="geometry" />
        </mxCell>
        <mxCell id="A0-HN7C7BS5goOcvQzFF-20" value="Doctor Management" style="rounded=0;whiteSpace=wrap;html=1;labelBackgroundColor=none;fillColor=#09555B;strokeColor=#BAC8D3;fontColor=#EEEEEE;sketch=1;curveFitting=1;jiggle=2;" vertex="1" parent="1">
          <mxGeometry x="10" y="200" width="160" height="60" as="geometry" />
        </mxCell>
        <mxCell id="A0-HN7C7BS5goOcvQzFF-21" value="Queue management" style="rounded=0;whiteSpace=wrap;html=1;labelBackgroundColor=none;fillColor=#09555B;strokeColor=#BAC8D3;fontColor=#EEEEEE;sketch=1;curveFitting=1;jiggle=2;" vertex="1" parent="1">
          <mxGeometry x="310" y="270" width="160" height="60" as="geometry" />
        </mxCell>
        <mxCell id="A0-HN7C7BS5goOcvQzFF-23" style="edgeStyle=orthogonalEdgeStyle;rounded=0;orthogonalLoop=1;jettySize=auto;html=1;labelBackgroundColor=none;strokeColor=#0B4D6A;fontColor=default;sketch=1;curveFitting=1;jiggle=2;" edge="1" parent="1">
          <mxGeometry relative="1" as="geometry">
            <mxPoint x="80" y="200" as="targetPoint" />
            <mxPoint x="257" y="140" as="sourcePoint" />
            <Array as="points">
              <mxPoint x="400" y="140" />
              <mxPoint x="400" y="141" />
              <mxPoint x="80" y="141" />
            </Array>
          </mxGeometry>
        </mxCell>
        <mxCell id="A0-HN7C7BS5goOcvQzFF-26" value="doctorRegistration(doctorName, department, doctorContactInfo)" style="rounded=0;whiteSpace=wrap;html=1;fontStyle=1;align=left;labelBackgroundColor=none;fillColor=#09555B;strokeColor=#BAC8D3;fontColor=#EEEEEE;sketch=1;curveFitting=1;jiggle=2;" vertex="1" parent="1">
          <mxGeometry x="10" y="280" width="250" height="30" as="geometry" />
        </mxCell>
        <mxCell id="A0-HN7C7BS5goOcvQzFF-27" style="edgeStyle=elbowEdgeStyle;rounded=0;orthogonalLoop=1;jettySize=auto;html=1;exitX=0.5;exitY=1;exitDx=0;exitDy=0;labelBackgroundColor=none;strokeColor=#0B4D6A;fontColor=default;sketch=1;curveFitting=1;jiggle=2;" edge="1" parent="1">
          <mxGeometry relative="1" as="geometry">
            <mxPoint x="75" y="400" as="sourcePoint" />
            <mxPoint x="75" y="400" as="targetPoint" />
          </mxGeometry>
        </mxCell>
        <mxCell id="A0-HN7C7BS5goOcvQzFF-33" style="edgeStyle=elbowEdgeStyle;rounded=0;orthogonalLoop=1;jettySize=auto;html=1;exitX=0.5;exitY=1;exitDx=0;exitDy=0;entryX=0.5;entryY=0;entryDx=0;entryDy=0;labelBackgroundColor=none;strokeColor=#0B4D6A;fontColor=default;sketch=1;curveFitting=1;jiggle=2;" edge="1" parent="1" source="A0-HN7C7BS5goOcvQzFF-29" target="A0-HN7C7BS5goOcvQzFF-30">
          <mxGeometry relative="1" as="geometry" />
        </mxCell>
        <mxCell id="A0-HN7C7BS5goOcvQzFF-29" value="String doctorName&lt;div&gt;String department&lt;/div&gt;&lt;div&gt;String doctorContactInfo&lt;/div&gt;" style="rounded=0;whiteSpace=wrap;html=1;align=left;labelBackgroundColor=none;fillColor=#09555B;strokeColor=#BAC8D3;fontColor=#EEEEEE;sketch=1;curveFitting=1;jiggle=2;" vertex="1" parent="1">
          <mxGeometry x="10" y="310" width="250" height="60" as="geometry" />
        </mxCell>
        <mxCell id="A0-HN7C7BS5goOcvQzFF-34" style="edgeStyle=elbowEdgeStyle;rounded=0;orthogonalLoop=1;jettySize=auto;html=1;exitX=0.5;exitY=1;exitDx=0;exitDy=0;entryX=0.5;entryY=0;entryDx=0;entryDy=0;labelBackgroundColor=none;strokeColor=#0B4D6A;fontColor=default;sketch=1;curveFitting=1;jiggle=2;" edge="1" parent="1" source="A0-HN7C7BS5goOcvQzFF-30" target="A0-HN7C7BS5goOcvQzFF-31">
          <mxGeometry relative="1" as="geometry" />
        </mxCell>
        <mxCell id="A0-HN7C7BS5goOcvQzFF-30" value="viewRegisteredDoctors()" style="rounded=0;whiteSpace=wrap;html=1;fontStyle=1;labelBackgroundColor=none;fillColor=#09555B;strokeColor=#BAC8D3;fontColor=#EEEEEE;sketch=1;curveFitting=1;jiggle=2;" vertex="1" parent="1">
          <mxGeometry x="10" y="390" width="160" height="30" as="geometry" />
        </mxCell>
        <mxCell id="A0-HN7C7BS5goOcvQzFF-31" value="setAvailableDoctors()" style="rounded=0;whiteSpace=wrap;html=1;fontStyle=1;labelBackgroundColor=none;fillColor=#09555B;strokeColor=#BAC8D3;fontColor=#EEEEEE;sketch=1;curveFitting=1;jiggle=2;" vertex="1" parent="1">
          <mxGeometry x="10" y="460" width="130" height="30" as="geometry" />
        </mxCell>
        <mxCell id="A0-HN7C7BS5goOcvQzFF-36" value="patientRegistration(patientName, patientAge, patientContactInfo, reasonForVisit)" style="rounded=0;whiteSpace=wrap;html=1;fontStyle=1;align=left;labelBackgroundColor=none;fillColor=#09555B;strokeColor=#BAC8D3;fontColor=#EEEEEE;sketch=1;curveFitting=1;jiggle=2;" vertex="1" parent="1">
          <mxGeometry x="630" y="270" width="260" height="40" as="geometry" />
        </mxCell>
        <mxCell id="A0-HN7C7BS5goOcvQzFF-37" value="String patientName&lt;div&gt;&lt;span style=&quot;background-color: transparent; color: light-dark(rgb(0, 0, 0), rgb(255, 255, 255));&quot;&gt;int patientAge&lt;/span&gt;&lt;/div&gt;&lt;div&gt;&lt;span style=&quot;background-color: transparent; color: light-dark(rgb(0, 0, 0), rgb(255, 255, 255));&quot;&gt;String patientContactInfo&lt;/span&gt;&lt;/div&gt;&lt;div&gt;&lt;span style=&quot;background-color: transparent; color: light-dark(rgb(0, 0, 0), rgb(255, 255, 255));&quot;&gt;String reasonForVisit&lt;/span&gt;&lt;/div&gt;" style="rounded=0;whiteSpace=wrap;html=1;align=left;labelBackgroundColor=none;fillColor=#09555B;strokeColor=#BAC8D3;fontColor=#EEEEEE;sketch=1;curveFitting=1;jiggle=2;" vertex="1" parent="1">
          <mxGeometry x="640" y="310" width="250" height="70" as="geometry" />
        </mxCell>
        <mxCell id="A0-HN7C7BS5goOcvQzFF-43" style="edgeStyle=elbowEdgeStyle;rounded=0;orthogonalLoop=1;jettySize=auto;html=1;exitX=0.5;exitY=1;exitDx=0;exitDy=0;entryX=0.5;entryY=0;entryDx=0;entryDy=0;labelBackgroundColor=none;strokeColor=#0B4D6A;fontColor=default;sketch=1;curveFitting=1;jiggle=2;" edge="1" parent="1" source="A0-HN7C7BS5goOcvQzFF-38" target="A0-HN7C7BS5goOcvQzFF-41">
          <mxGeometry relative="1" as="geometry" />
        </mxCell>
        <mxCell id="A0-HN7C7BS5goOcvQzFF-38" value="scheduleAppointment()" style="rounded=0;whiteSpace=wrap;html=1;fontStyle=1;labelBackgroundColor=none;fillColor=#09555B;strokeColor=#BAC8D3;fontColor=#EEEEEE;sketch=1;curveFitting=1;jiggle=2;" vertex="1" parent="1">
          <mxGeometry x="667.5" y="420" width="165" height="30" as="geometry" />
        </mxCell>
        <mxCell id="A0-HN7C7BS5goOcvQzFF-39" style="edgeStyle=elbowEdgeStyle;rounded=0;orthogonalLoop=1;jettySize=auto;html=1;exitX=0.5;exitY=1;exitDx=0;exitDy=0;entryX=0.44;entryY=-0.067;entryDx=0;entryDy=0;entryPerimeter=0;labelBackgroundColor=none;strokeColor=#0B4D6A;fontColor=default;sketch=1;curveFitting=1;jiggle=2;" edge="1" parent="1" source="A0-HN7C7BS5goOcvQzFF-18" target="A0-HN7C7BS5goOcvQzFF-36">
          <mxGeometry relative="1" as="geometry" />
        </mxCell>
        <mxCell id="A0-HN7C7BS5goOcvQzFF-40" style="edgeStyle=elbowEdgeStyle;rounded=0;orthogonalLoop=1;jettySize=auto;html=1;exitX=0.5;exitY=1;exitDx=0;exitDy=0;entryX=0.591;entryY=0.033;entryDx=0;entryDy=0;entryPerimeter=0;labelBackgroundColor=none;strokeColor=#0B4D6A;fontColor=default;sketch=1;curveFitting=1;jiggle=2;" edge="1" parent="1" source="A0-HN7C7BS5goOcvQzFF-37" target="A0-HN7C7BS5goOcvQzFF-38">
          <mxGeometry relative="1" as="geometry" />
        </mxCell>
        <mxCell id="A0-HN7C7BS5goOcvQzFF-41" value="setScheduling()" style="rounded=0;whiteSpace=wrap;html=1;fontStyle=1;labelBackgroundColor=none;fillColor=#09555B;strokeColor=#BAC8D3;fontColor=#EEEEEE;sketch=1;curveFitting=1;jiggle=2;" vertex="1" parent="1">
          <mxGeometry x="685" y="490" width="130" height="30" as="geometry" />
        </mxCell>
        <mxCell id="A0-HN7C7BS5goOcvQzFF-42" style="edgeStyle=elbowEdgeStyle;rounded=0;orthogonalLoop=1;jettySize=auto;html=1;exitX=0.75;exitY=1;exitDx=0;exitDy=0;entryX=0.808;entryY=1.1;entryDx=0;entryDy=0;entryPerimeter=0;labelBackgroundColor=none;strokeColor=#0B4D6A;fontColor=default;sketch=1;curveFitting=1;jiggle=2;" edge="1" parent="1" source="A0-HN7C7BS5goOcvQzFF-41" target="A0-HN7C7BS5goOcvQzFF-41">
          <mxGeometry relative="1" as="geometry" />
        </mxCell>
        <mxCell id="A0-HN7C7BS5goOcvQzFF-44" value="patientQueue()" style="rounded=0;whiteSpace=wrap;html=1;fontStyle=1;align=left;labelBackgroundColor=none;fillColor=#09555B;strokeColor=#BAC8D3;fontColor=#EEEEEE;sketch=1;curveFitting=1;jiggle=2;" vertex="1" parent="1">
          <mxGeometry x="330" y="340" width="100" height="30" as="geometry" />
        </mxCell>
        <mxCell id="A0-HN7C7BS5goOcvQzFF-45" style="edgeStyle=elbowEdgeStyle;rounded=0;orthogonalLoop=1;jettySize=auto;html=1;exitX=0.5;exitY=1;exitDx=0;exitDy=0;labelBackgroundColor=none;strokeColor=#0B4D6A;fontColor=default;sketch=1;curveFitting=1;jiggle=2;" edge="1" parent="1" source="A0-HN7C7BS5goOcvQzFF-44" target="A0-HN7C7BS5goOcvQzFF-44">
          <mxGeometry relative="1" as="geometry" />
        </mxCell>
        <mxCell id="A0-HN7C7BS5goOcvQzFF-46" value="&lt;div style=&quot;text-align: center;&quot;&gt;&lt;span style=&quot;font-weight: 700; background-color: transparent; color: light-dark(rgb(0, 0, 0), rgb(255, 255, 255));&quot;&gt;this.getAvailableDoctors()&lt;/span&gt;&lt;/div&gt;&lt;div style=&quot;text-align: center;&quot;&gt;&lt;b&gt;nextPatient()&lt;/b&gt;&lt;/div&gt;&lt;div&gt;&lt;div style=&quot;text-align: center;&quot;&gt;&lt;b&gt;&lt;br&gt;&lt;/b&gt;&lt;/div&gt;&lt;div style=&quot;text-align: center;&quot;&gt;&lt;span style=&quot;font-weight: 700;&quot;&gt;&lt;br&gt;&lt;/span&gt;&lt;/div&gt;&lt;/div&gt;" style="rounded=0;whiteSpace=wrap;html=1;align=left;labelBackgroundColor=none;fillColor=#09555B;strokeColor=#BAC8D3;fontColor=#EEEEEE;sketch=1;curveFitting=1;jiggle=2;" vertex="1" parent="1">
          <mxGeometry x="290" y="370" width="170" height="60" as="geometry" />
        </mxCell>
      </root>
    </mxGraphModel>
  </diagram>
</mxfile>
